<svg width="62" height="38" viewBox="0 0 62 38" fill="none" xmlns="http://www.w3.org/2000/svg">
<path d="M0 19.1279C0.879433 16.0499 4.6543 10.845 11.2128 8.57476C18.0723 6.2003 27.7021 7.25546 31.6596 9.23433C36.0567 9.01446 46.0383 9.49812 50.7872 13.1917C55.5362 16.8853 60.2411 24.4045 62 27.7023C61.1206 27.7023 59.0979 27.5704 58.0426 27.0428C57.4139 26.7284 56.286 25.7744 55.2443 24.8219C55.7119 25.5621 56.0638 26.5223 56.0638 27.7023C56.0638 30.3406 56.5035 35.3973 56.7234 37.5959C53.8652 35.3973 48.017 30.6044 47.4894 29.0215C46.8298 27.0428 44.0582 17.975 41.5532 15.83C40 14.5 33.8582 14.0712 31.6596 13.1917C27.922 16.0499 18.2144 20.8964 15.1702 21.7662C10.5532 23.0853 2.6383 21.7662 0 19.1279Z" fill="#FFB3B9"/>
<path d="M17.149 5.93617C18.2021 3.85496 17.8085 0 17.8085 0C17.8085 0 14.0212 1.85578 12.5319 3.95745C10.9772 6.15165 10.5532 10.5532 10.5532 10.5532C12.5319 9.89362 15.7294 8.74162 17.149 5.93617Z" fill="#FFB3B9"/>
<path d="M18.7384 20.1066C16.7029 18.9675 12.8349 19.1997 12.8349 19.1997C12.8349 19.1997 14.5309 23.0613 16.5686 24.637C18.696 26.282 23.076 26.8894 23.076 26.8894C22.4996 24.8848 21.4821 21.6421 18.7384 20.1066Z" fill="#FFB3B9"/>
</svg>
